<mxfile host="app.diagrams.net" modified="2023-08-30T03:29:02.651Z" agent="Mozilla/5.0 (Windows NT 10.0; Win64; x64) AppleWebKit/537.36 (KHTML, like Gecko) Chrome/116.0.0.0 Safari/537.36" version="21.6.8" etag="GV_ofsbY9qS6kfSgEu2p" type="github">
  <diagram name="Page-1" id="IS9gpoj-XRUKxE0GVx5A">
    <mxGraphModel>
      <root>
        <mxCell id="0" />
        <mxCell id="1" parent="0" />
      </root>
    </mxGraphModel>
  </diagram>
</mxfile>
